<svg width="327" height="150" viewBox="0 0 327 150" fill="none" xmlns="http://www.w3.org/2000/svg">
<path d="M261.32 45.4103H241V92H261.32V45.4103Z" fill="#96ABAA"/>
<path d="M291.799 35.282H271.479V92H291.799V35.282Z" fill="#9ABC56"/>
<path d="M322.278 13H301.958V92H322.278V13Z" fill="#676765"/>
<path d="M8.72438 92V12.5887H37.8057C43.441 12.5887 48.1069 13.5193 51.8034 15.3805C55.5 17.2159 58.2659 19.7104 60.1013 22.8641C61.9366 25.992 62.8543 29.5205 62.8543 33.4497C62.8543 36.7585 62.2469 39.5503 61.0319 41.8251C59.8169 44.0741 58.1884 45.8836 56.1462 47.2536C54.1299 48.5978 51.9068 49.5801 49.4769 50.2005V50.976C52.1136 51.1053 54.6857 51.9583 57.1932 53.5352C59.7265 55.0862 61.8203 57.2963 63.4747 60.1657C65.1291 63.0351 65.9563 66.5248 65.9563 70.635C65.9563 74.6934 64.9999 78.3383 63.087 81.5695C61.1999 84.7749 58.2789 87.3211 54.3238 89.2082C50.3688 91.0694 45.3151 92 39.1628 92H8.72438ZM20.7059 81.7246H37.9995C43.7382 81.7246 47.8484 80.6131 50.33 78.39C52.8116 76.1669 54.0524 73.388 54.0524 70.0533C54.0524 67.5459 53.4191 65.2452 52.1524 63.1514C50.8858 61.0575 49.0763 59.3902 46.7239 58.1494C44.3974 56.9086 41.6315 56.2882 38.4261 56.2882H20.7059V81.7246ZM20.7059 46.9434H36.7587C39.4471 46.9434 41.8641 46.4264 44.0097 45.3924C46.1811 44.3584 47.9001 42.9108 49.1667 41.0496C50.4592 39.1626 51.1055 36.9395 51.1055 34.3803C51.1055 31.0974 49.9552 28.3443 47.6545 26.1212C45.3539 23.8981 41.8253 22.7866 37.0689 22.7866H20.7059V46.9434ZM79.6214 12.5887H94.1621L119.443 74.3186H120.374L145.655 12.5887H160.196V92H148.796V34.5354H148.059L124.639 91.8837H115.178L91.758 34.4966H91.0213V92H79.6214V12.5887ZM175.015 92V84.0123L216.775 22.9029H174.666V12.5887H231.432V20.5764L189.672 81.6858H231.781V92H175.015Z" fill="#676765"/>
<path d="M12.7172 142.341H6.12411L20.9385 101.174H28.1146L42.929 142.341H36.3359L24.6974 108.651H24.3758L12.7172 142.341ZM13.8228 126.22H35.2102V131.446H13.8228V126.22ZM82.1008 101.174V142.341H76.3921L55.467 112.149H55.0851V142.341H48.8739V101.174H54.6227L75.568 131.406H75.9499V101.174H82.1008ZM94.6388 142.341H88.0456L102.86 101.174H110.036L124.851 142.341H118.257L106.619 108.651H106.297L94.6388 142.341ZM95.7443 126.22H117.132V131.446H95.7443V126.22ZM130.795 142.341V101.174H137.007V136.994H155.66V142.341H130.795ZM156.53 101.174H163.585L174.339 119.888H174.781L185.535 101.174H192.591L177.656 126.179V142.341H171.465V126.179L156.53 101.174ZM199.023 106.521V101.174H230.883V106.521H218.039V142.341H211.848V106.521H199.023ZM244.135 101.174V142.341H237.924V101.174H244.135ZM287.372 114.561H281.1C280.859 113.221 280.41 112.042 279.754 111.023C279.097 110.005 278.293 109.14 277.342 108.43C276.39 107.72 275.325 107.184 274.145 106.822C272.98 106.46 271.74 106.279 270.427 106.279C268.055 106.279 265.931 106.876 264.055 108.068C262.192 109.261 260.718 111.01 259.633 113.315C258.561 115.62 258.025 118.434 258.025 121.757C258.025 125.107 258.561 127.935 259.633 130.24C260.718 132.545 262.199 134.287 264.075 135.466C265.951 136.645 268.062 137.235 270.407 137.235C271.707 137.235 272.939 137.061 274.105 136.712C275.285 136.35 276.35 135.821 277.301 135.124C278.253 134.427 279.057 133.577 279.713 132.572C280.383 131.553 280.846 130.387 281.1 129.074L287.372 129.094C287.037 131.118 286.387 132.98 285.422 134.682C284.471 136.371 283.245 137.831 281.744 139.064C280.256 140.284 278.554 141.228 276.638 141.898C274.722 142.568 272.631 142.903 270.367 142.903C266.802 142.903 263.626 142.059 260.839 140.371C258.051 138.669 255.854 136.237 254.246 133.074C252.651 129.911 251.854 126.139 251.854 121.757C251.854 117.362 252.658 113.589 254.266 110.44C255.874 107.278 258.071 104.852 260.859 103.164C263.646 101.462 266.815 100.611 270.367 100.611C272.551 100.611 274.588 100.926 276.477 101.556C278.38 102.172 280.089 103.083 281.603 104.289C283.117 105.482 284.37 106.943 285.362 108.671C286.353 110.387 287.024 112.35 287.372 114.561ZM317.257 111.988C317.043 110.085 316.158 108.611 314.604 107.566C313.049 106.507 311.093 105.978 308.734 105.978C307.046 105.978 305.585 106.246 304.352 106.782C303.119 107.305 302.161 108.028 301.478 108.953C300.808 109.864 300.473 110.903 300.473 112.069C300.473 113.047 300.701 113.891 301.156 114.601C301.625 115.311 302.235 115.908 302.985 116.39C303.749 116.859 304.567 117.255 305.438 117.576C306.309 117.884 307.146 118.139 307.95 118.34L311.971 119.385C313.284 119.707 314.631 120.142 316.011 120.692C317.391 121.241 318.671 121.965 319.85 122.863C321.029 123.761 321.981 124.873 322.704 126.2C323.441 127.526 323.81 129.114 323.81 130.963C323.81 133.295 323.207 135.366 322.001 137.175C320.808 138.984 319.073 140.411 316.795 141.456C314.53 142.501 311.79 143.024 308.573 143.024C305.491 143.024 302.825 142.535 300.573 141.557C298.322 140.578 296.56 139.191 295.287 137.396C294.014 135.587 293.31 133.443 293.176 130.963H299.407C299.528 132.451 300.01 133.69 300.855 134.682C301.712 135.66 302.804 136.391 304.131 136.873C305.471 137.342 306.939 137.577 308.533 137.577C310.289 137.577 311.85 137.302 313.217 136.753C314.597 136.19 315.682 135.412 316.473 134.421C317.264 133.416 317.659 132.243 317.659 130.903C317.659 129.684 317.311 128.685 316.614 127.908C315.93 127.131 314.999 126.488 313.82 125.978C312.654 125.469 311.334 125.02 309.86 124.632L304.995 123.305C301.699 122.407 299.086 121.087 297.156 119.345C295.24 117.603 294.282 115.298 294.282 112.43C294.282 110.058 294.925 107.988 296.211 106.219C297.498 104.45 299.24 103.077 301.438 102.098C303.635 101.107 306.114 100.611 308.875 100.611C311.662 100.611 314.121 101.1 316.252 102.078C318.396 103.057 320.085 104.403 321.317 106.119C322.55 107.821 323.194 109.777 323.247 111.988H317.257Z" fill="#676765"/>
</svg>
